# xmcd CD database file
#
# Track frame offsets:
#	150
#	15078
#	34042
#
# Disc length: 653 seconds
#
# Revision: 0
# Processed by: cddbd v1.5.1PL0 Copyright (c) Steve Scherf et al.
# Submitted via: CDex 1.50beta10
#
DISCID=11028b03
DTITLE=Berryz工房 - 21時までのシンデレラ
DYEAR=2005
DGENRE=JPop
TTITLE0=21時までのシンデレラ
TTITLE1=秘密のウ・タ・ヒ・メ
TTITLE2=21時までのシンデレラ (Instrumental)
EXTD=YEAR: 2005
EXTT0=
EXTT1=
EXTT2=
PLAYORDER=
